<?xml version="1.0" standalone="no"?>
<!DOCTYPE svg PUBLIC "-//W3C//DTD SVG 20010904//EN"
 "http://www.w3.org/TR/2001/REC-SVG-20010904/DTD/svg10.dtd">
<svg version="1.0" xmlns="http://www.w3.org/2000/svg"
 width="100.000000pt" height="100.000000pt" viewBox="0 0 100.000000 100.000000"
 preserveAspectRatio="xMidYMid meet">

<g transform="translate(0.000000,100.000000) scale(0.100000,-0.100000)"
fill="#000000" stroke="none">
<path d="M277 685 c-27 -13 -61 -34 -75 -48 -15 -14 -41 -32 -57 -40 -57 -28
-73 -97 -23 -97 26 0 200 167 204 195 1 8 2 15 1 14 -1 0 -24 -11 -50 -24z"/>
<path d="M837 559 c-18 -10 -18 -12 4 -35 26 -28 67 -32 76 -8 14 38 -40 66
-80 43z"/>
<path d="M785 325 c-17 -13 -36 -24 -42 -25 -7 0 -13 -4 -13 -9 0 -5 -14 -14
-30 -21 -26 -11 -28 -15 -18 -29 7 -9 9 -13 5 -10 -5 4 -25 -9 -45 -28 -20
-19 -56 -48 -79 -65 -24 -17 -41 -33 -40 -35 2 -2 45 -4 94 -4 107 -1 140 12
180 72 28 43 43 133 26 163 -7 13 -12 12 -38 -9z"/>
</g>
</svg>
