<?xml version="1.0" encoding="UTF-8"?>
<svg version="1.1" xmlns="http://www.w3.org/2000/svg" width="100" height="100">
<path d="M0 0 C2.125 2.875 2.125 2.875 4 6 C6.10575643 7.83300909 6.10575643 7.83300909 8 9 C7.505 7.515 7.505 7.515 7 6 C8.98 6.66 10.96 7.32 13 8 C13.556875 7.319375 14.11375 6.63875 14.6875 5.9375 C17 4 17 4 19.625 4 C22 5 22 5 23.1015625 6.68359375 C24.19768049 9.50967188 24.49562655 12.04368565 24.75 15.0625 C24.84796875 16.10535156 24.9459375 17.14820313 25.046875 18.22265625 C25 21 25 21 23 24 C24.32 24.99 25.64 25.98 27 27 C27 26.34 27 25.68 27 25 C30 26 30 26 30.9609375 27.85546875 C31.30382812 28.56316406 31.64671875 29.27085938 32 30 C33.1745666 31.14002052 34.38528266 32.2436902 35.625 33.3125 C38.37698483 35.98995191 38.94471248 36.67933241 39.625 40.625 C38.97713141 44.12349039 38.25115887 46.2485836 36 49 C35.01 49 34.02 49 33 49 C32.96241577 50.05127075 32.96241577 50.05127075 32.92407227 51.1237793 C32.80773455 54.31185488 32.68517956 57.49966242 32.5625 60.6875 C32.52318359 61.79029297 32.48386719 62.89308594 32.44335938 64.02929688 C32.40146484 65.09599609 32.35957031 66.16269531 32.31640625 67.26171875 C32.27974854 68.24100342 32.24309082 69.22028809 32.20532227 70.22924805 C32.00780667 72.89465177 31.58426967 75.39469788 31 78 C29.515 77.505 29.515 77.505 28 77 C25.66053731 80.32052768 23.82292254 83.01532244 23 87 C17.40905803 88.55658249 12.26676439 89.36526655 6.4765625 89.5546875 C5.69034515 89.58354034 4.90412781 89.61239319 4.09408569 89.64212036 C2.4421122 89.69879679 0.7899665 89.75064381 -0.86230469 89.79785156 C-3.36265536 89.87462098 -5.86029961 89.98364125 -8.359375 90.09375 C-24.95081357 90.6828588 -24.95081357 90.6828588 -32 86 C-34 83.25 -34 83.25 -35 81 C-35.66 81 -36.32 81 -37 81 C-40.21277645 74.05163309 -40.36440221 68.08411523 -40.1875 60.5 C-40.17396484 59.39140625 -40.16042969 58.2828125 -40.14648438 57.140625 C-40.11138881 54.42656768 -40.0622227 51.71354807 -40 49 C-41.65 48.67 -43.3 48.34 -45 48 C-46.14410995 44.56767015 -46.49235202 42.59913147 -46 39 C-44.29207815 36.4882022 -42.15347015 34.50218541 -39.9453125 32.4296875 C-39.32856659 31.82617462 -38.71182068 31.22266174 -38.0763855 30.6008606 C-36.10628848 28.67750837 -34.11701715 26.77561815 -32.125 24.875 C-30.14370633 22.96393427 -28.16678952 21.04862518 -26.19503784 19.12771606 C-24.96821768 17.93472627 -23.73528801 16.74797933 -22.49563599 15.56832886 C-19.71740697 12.88685284 -17.45054872 10.65375541 -16 7 C-13.7059957 3.76719527 -11.87482476 1.29160825 -8 0 C-4.9637583 -1.51812085 -3.20988224 -0.96296467 0 0 Z M13 11 C14 13 14 13 14 13 Z M-38 47 C-39.32286246 51.96073422 -39.08893197 56.91111512 -39 62 C-38.67 62 -38.34 62 -38 62 C-37.67 57.05 -37.34 52.1 -37 47 C-37.33 47 -37.66 47 -38 47 Z M29 47 C30 49 30 49 30 49 Z M30 49 C30 56.26 30 63.52 30 71 C30.33 71 30.66 71 31 71 C31 63.74 31 56.48 31 49 C30.67 49 30.34 49 30 49 Z M-39 65 C-38.67 67.97 -38.34 70.94 -38 74 C-37.67 74 -37.34 74 -37 74 C-37.33 71.03 -37.66 68.06 -38 65 C-38.33 65 -38.66 65 -39 65 Z M29 71 C30 75 30 75 30 75 Z M-37 74 C-36 77 -36 77 -36 77 Z M-19 86 C-19 86.33 -19 86.66 -19 87 C-17.35 87 -15.7 87 -14 87 C-14 86.67 -14 86.34 -14 86 C-15.65 86 -17.3 86 -19 86 Z M4 86 C4 86.33 4 86.66 4 87 C5.98 87 7.96 87 10 87 C10 86.67 10 86.34 10 86 C8.02 86 6.04 86 4 86 Z M12 86 C12 86.33 12 86.66 12 87 C13.65 87 15.3 87 17 87 C17 86.67 17 86.34 17 86 C15.35 86 13.7 86 12 86 Z M-14 87 C-14 87.33 -14 87.66 -14 88 C-8.06 88 -2.12 88 4 88 C4 87.67 4 87.34 4 87 C-2.32629569 86.09624347 -7.67370431 86.09624347 -14 87 Z " fill="#FEB87D" transform="translate(54,5)"/>
<path d="M0 0 C1.14926266 0.95421808 2.29430541 1.91352045 3.4375 2.875 C4.07558594 3.40867188 4.71367188 3.94234375 5.37109375 4.4921875 C7.3806812 6.35238116 7.95484054 7.40150025 8.16113281 10.13549805 C8.20671586 12.98629337 8.23531292 15.83636993 8.25 18.6875 C8.270625 19.66912109 8.29125 20.65074219 8.3125 21.66210938 C8.35162095 28.95327625 7.15962487 33.42831271 3.375 39.6875 C2.07540752 41.87317826 1.54669017 43.55020912 1 46 C-4.59094197 47.55658249 -9.73323561 48.36526655 -15.5234375 48.5546875 C-16.30965485 48.58354034 -17.09587219 48.61239319 -17.90591431 48.64212036 C-19.5578878 48.69879679 -21.2100335 48.75064381 -22.86230469 48.79785156 C-25.36265536 48.87462098 -27.86029961 48.98364125 -30.359375 49.09375 C-46.95081357 49.6828588 -46.95081357 49.6828588 -54 45 C-56 42.25 -56 42.25 -57 40 C-57.66 40 -58.32 40 -59 40 C-59.55808089 38.56879256 -60.09596462 37.12969645 -60.625 35.6875 C-61.07746094 34.48673828 -61.07746094 34.48673828 -61.5390625 33.26171875 C-61.69117188 32.51535156 -61.84328125 31.76898438 -62 31 C-61.01 29.515 -61.01 29.515 -60 28 C-59.67 29.65 -59.34 31.3 -59 33 C-58.61585937 32.525625 -58.23171875 32.05125 -57.8359375 31.5625 C-55.45756221 29.53835082 -53.70047851 29.40444649 -50.625 29 C-46.31378043 28.42992138 -43.66799155 27.30608517 -40 25 C-38.12295738 24.22374033 -36.22603693 23.49385489 -34.3125 22.8125 C-33.35988281 22.46832031 -32.40726563 22.12414062 -31.42578125 21.76953125 C-29 21 -29 21 -27 21 C-26.505 19.515 -26.505 19.515 -26 18 C-23.4375 16.8125 -23.4375 16.8125 -21 16 C-22.32 15.34 -23.64 14.68 -25 14 C-22.69 13.34 -20.38 12.68 -18 12 C-18 11.34 -18 10.68 -18 10 C-15.11387138 8.07591425 -14.2478839 7.72661088 -11 7.4375 C-8.40222383 7.1964185 -6.51908403 6.83969468 -4 6 C-4 5.01 -4 4.02 -4 3 C-3.01 2.67 -2.02 2.34 -1 2 C-0.67 1.34 -0.34 0.68 0 0 Z M-41 45 C-41 45.33 -41 45.66 -41 46 C-39.35 46 -37.7 46 -36 46 C-36 45.67 -36 45.34 -36 45 C-37.65 45 -39.3 45 -41 45 Z M-18 45 C-18 45.33 -18 45.66 -18 46 C-16.02 46 -14.04 46 -12 46 C-12 45.67 -12 45.34 -12 45 C-13.98 45 -15.96 45 -18 45 Z M-10 45 C-10 45.33 -10 45.66 -10 46 C-8.35 46 -6.7 46 -5 46 C-5 45.67 -5 45.34 -5 45 C-6.65 45 -8.3 45 -10 45 Z M-36 46 C-36 46.33 -36 46.66 -36 47 C-30.06 47 -24.12 47 -18 47 C-18 46.67 -18 46.34 -18 46 C-24.32629569 45.09624347 -29.67370431 45.09624347 -36 46 Z " fill="#B5B0B8" transform="translate(76,46)"/>
<path d="M0 0 C2.125 2.875 2.125 2.875 4 6 C6.10575643 7.83300909 6.10575643 7.83300909 8 9 C7.505 7.515 7.505 7.515 7 6 C8.98 6.66 10.96 7.32 13 8 C13.556875 7.319375 14.11375 6.63875 14.6875 5.9375 C17 4 17 4 19.625 4 C22 5 22 5 23.1015625 6.68359375 C24.19768049 9.50967188 24.49562655 12.04368565 24.75 15.0625 C24.84796875 16.10535156 24.9459375 17.14820313 25.046875 18.22265625 C25 21 25 21 23 24 C24.32 24.99 25.64 25.98 27 27 C27 26.34 27 25.68 27 25 C30 26 30 26 30.9609375 27.85546875 C31.30382812 28.56316406 31.64671875 29.27085938 32 30 C33.1745666 31.14002052 34.38528266 32.2436902 35.625 33.3125 C38.37698483 35.98995191 38.94471248 36.67933241 39.625 40.625 C38.97713141 44.12349039 38.25115887 46.2485836 36 49 C35.01 49 34.02 49 33 49 C32.96241577 50.05127075 32.96241577 50.05127075 32.92407227 51.1237793 C32.80773455 54.31185488 32.68517956 57.49966242 32.5625 60.6875 C32.52318359 61.79029297 32.48386719 62.89308594 32.44335938 64.02929688 C32.40146484 65.09599609 32.35957031 66.16269531 32.31640625 67.26171875 C32.27974854 68.24100342 32.24309082 69.22028809 32.20532227 70.22924805 C32.00780667 72.89465177 31.58426967 75.39469788 31 78 C30.34 77.67 29.68 77.34 29 77 C29.1546875 76.23429687 29.309375 75.46859375 29.46875 74.6796875 C30.17038732 69.81981723 30.38180887 65.029932 30.5 60.125 C30.58121094 58.69220703 30.58121094 58.69220703 30.6640625 57.23046875 C30.76671412 51.88525245 30.32851119 48.71857401 26.76171875 44.609375 C25.52825976 43.38529593 24.27569728 42.17999453 23 41 C22.17113281 40.11570313 21.34226562 39.23140625 20.48828125 38.3203125 C19.77027344 37.59585938 19.05226563 36.87140625 18.3125 36.125 C17.58675781 35.38507812 16.86101562 34.64515625 16.11328125 33.8828125 C14.13685455 31.95466325 14.13685455 31.95466325 11.94140625 30.98046875 C9.53052189 29.76289939 8.32513559 28.27475567 6.625 26.1875 C3.62946861 22.66598666 0.77487821 19.68435784 -3 17 C-4.32 17 -5.64 17 -7 17 C-7 17.66 -7 18.32 -7 19 C-8.57421875 20.55078125 -8.57421875 20.55078125 -10.6875 22.3125 C-15.64077494 26.53195643 -19.96511548 30.88914628 -24 36 C-25.71713872 37.94111334 -27.11327332 39.06557929 -29.375 40.375 C-33.03325205 42.63963222 -36.42986422 44.98366614 -37.640625 49.265625 C-38.04491899 52.34177492 -38.05893956 55.27330584 -38 58.375 C-37.95749317 63.05606434 -38.14475506 67.40305844 -39 72 C-39.33 72 -39.66 72 -40 72 C-40 64.41 -40 56.82 -40 49 C-41.65 48.67 -43.3 48.34 -45 48 C-46.14410995 44.56767015 -46.49235202 42.59913147 -46 39 C-44.29207815 36.4882022 -42.15347015 34.50218541 -39.9453125 32.4296875 C-39.32856659 31.82617462 -38.71182068 31.22266174 -38.0763855 30.6008606 C-36.10628848 28.67750837 -34.11701715 26.77561815 -32.125 24.875 C-30.14370633 22.96393427 -28.16678952 21.04862518 -26.19503784 19.12771606 C-24.96821768 17.93472627 -23.73528801 16.74797933 -22.49563599 15.56832886 C-19.71740697 12.88685284 -17.45054872 10.65375541 -16 7 C-13.7059957 3.76719527 -11.87482476 1.29160825 -8 0 C-4.9637583 -1.51812085 -3.20988224 -0.96296467 0 0 Z M13 11 C14 13 14 13 14 13 Z " fill="#FDA14B" transform="translate(54,5)"/>
<path d="M0 0 C0.33 0 0.66 0 1 0 C1.08782542 3.52067351 1.14066643 7.04106144 1.1875 10.5625 C1.21263672 11.55314453 1.23777344 12.54378906 1.26367188 13.56445312 C1.33701331 20.92304347 0.19456797 25.37052221 -3.625 31.6875 C-4.92459248 33.87317826 -5.45330983 35.55020912 -6 38 C-11.62198005 39.57077742 -16.76999129 40.35521208 -22.59375 40.51953125 C-23.38471069 40.54601242 -24.17567139 40.57249359 -24.99060059 40.59977722 C-26.65098448 40.65209172 -28.31152125 40.69974634 -29.97216797 40.74291992 C-32.49411711 40.81233807 -35.01415395 40.9084068 -37.53515625 41.00585938 C-39.15880698 41.05371217 -40.78250508 41.09998887 -42.40625 41.14453125 C-43.52066467 41.19115654 -43.52066467 41.19115654 -44.65759277 41.23872375 C-50.08101491 41.34343498 -54.0168738 40.14551267 -59 38 C-59 37.01 -59 36.02 -59 35 C-57.02 35.66 -55.04 36.32 -53 37 C-52.94328125 36.38769531 -52.8865625 35.77539062 -52.828125 35.14453125 C-52 33 -52 33 -49.734375 31.76171875 C-48.74953125 31.40722656 -47.7646875 31.05273438 -46.75 30.6875 C-40.71534353 28.37481728 -35.3291017 25.54708933 -29.71484375 22.35546875 C-27 21 -27 21 -24 21 C-23.67 20.34 -23.34 19.68 -23 19 C-21.96875 19.144375 -20.9375 19.28875 -19.875 19.4375 C-16.12302624 19.39820977 -16.12302624 19.39820977 -14.41015625 17.546875 C-13.41778431 16.29390672 -12.44010244 15.0291797 -11.4765625 13.75390625 C-8.69988385 10.45568214 -4.97860893 9.32620298 -1 8 C-0.67 5.36 -0.34 2.72 0 0 Z M-48 37 C-48 37.33 -48 37.66 -48 38 C-46.35 38 -44.7 38 -43 38 C-43 37.67 -43 37.34 -43 37 C-44.65 37 -46.3 37 -48 37 Z M-25 37 C-25 37.33 -25 37.66 -25 38 C-23.02 38 -21.04 38 -19 38 C-19 37.67 -19 37.34 -19 37 C-20.98 37 -22.96 37 -25 37 Z M-17 37 C-17 37.33 -17 37.66 -17 38 C-15.35 38 -13.7 38 -12 38 C-12 37.67 -12 37.34 -12 37 C-13.65 37 -15.3 37 -17 37 Z M-43 38 C-43 38.33 -43 38.66 -43 39 C-37.06 39 -31.12 39 -25 39 C-25 38.67 -25 38.34 -25 38 C-31.32629569 37.09624347 -36.67370431 37.09624347 -43 38 Z " fill="#55A9C9" transform="translate(83,54)"/>
<path d="M0 0 C2 3 2 3 2 7 C1.34 7 0.68 7 0 7 C0 7.66 0 8.32 0 9 C-1.98 9.99 -1.98 9.99 -4 11 C-3.505 11.99 -3.505 11.99 -3 13 C-3.763125 13.433125 -4.52625 13.86625 -5.3125 14.3125 C-7.92319214 15.77367854 -7.92319214 15.77367854 -9.2734375 17.44921875 C-11.69579298 19.62495433 -14.259476 20.40133392 -17.3125 21.5 C-20.70154052 22.72808437 -23.89243465 23.94349415 -27.0859375 25.62109375 C-30.04127451 27.0195307 -32.07759513 27.41032693 -35.3125 27.5625 C-37.84353595 27.64445427 -37.84353595 27.64445427 -40 28 C-40.33 28.66 -40.66 29.32 -41 30 C-41.92092281 25.34462644 -42.12205997 20.85314567 -42.0625 16.125 C-42.05798828 15.43664062 -42.05347656 14.74828125 -42.04882812 14.0390625 C-42.03716336 12.35933665 -42.01923271 10.67965625 -42 9 C-41.34 8.67 -40.68 8.34 -40 8 C-40 8.66 -40 9.32 -40 10 C-34.43119878 8.26221806 -29.12742591 6.25577199 -23.84765625 3.76953125 C-22 3 -22 3 -20 3 C-20 3.99 -20 4.98 -20 6 C-19.14277344 5.73445313 -18.28554688 5.46890625 -17.40234375 5.1953125 C-11.6162135 3.40793968 -5.83317678 1.62786329 0 0 Z " fill="#F8C688" transform="translate(58,49)"/>
<path d="M0 0 C0.3125 2.6875 0.3125 2.6875 0 6 C-3.13171359 9.86858737 -6.86366394 12.29871931 -11 15 C-12.00637737 15.90966058 -13.00637764 16.82642413 -14 17.75 C-17 20 -17 20 -19.6796875 19.87890625 C-24.2628826 20.04605807 -27.20808458 21.93800693 -31.125 24.1875 C-37.23281752 27.57933177 -43.22021929 30.49444183 -49.77734375 32.9296875 C-52.3133526 33.91861698 -52.3133526 33.91861698 -54 37 C-55.65 36.34 -57.3 35.68 -59 35 C-59 35.66 -59 36.32 -59 37 C-62 36 -62 36 -63.1875 33.9375 C-63.455625 33.298125 -63.72375 32.65875 -64 32 C-64.66 32 -65.32 32 -66 32 C-66.55808089 30.56879256 -67.09596462 29.12969645 -67.625 27.6875 C-67.92664063 26.88699219 -68.22828125 26.08648437 -68.5390625 25.26171875 C-68.69117187 24.51535156 -68.84328125 23.76898438 -69 23 C-68.01 21.515 -68.01 21.515 -67 20 C-66.34 22.64 -65.68 25.28 -65 28 C-59.19941973 28.09063407 -53.73960775 27.83485204 -48 27 C-48 26.34 -48 25.68 -48 25 C-47.34 25 -46.68 25 -46 25 C-46 24.34 -46 23.68 -46 23 C-44.94232422 22.58814453 -44.94232422 22.58814453 -43.86328125 22.16796875 C-40.92401791 20.96900594 -38.06191796 19.65930687 -35.1875 18.3125 C-31.45317614 16.56614197 -27.72149437 14.86778258 -23.91015625 13.296875 C-16.01387445 10.02041336 -9.53234009 6.64011803 -3 1 C-1 0 -1 0 0 0 Z " fill="#87BCC4" transform="translate(83,54)"/>
<path d="M0 0 C2.125 2.875 2.125 2.875 4 6 C6.10575643 7.83300909 6.10575643 7.83300909 8 9 C7.505 7.515 7.505 7.515 7 6 C8.98 6.66 10.96 7.32 13 8 C13.556875 7.319375 14.11375 6.63875 14.6875 5.9375 C17 4 17 4 19.625 4 C22 5 22 5 23.1015625 6.68359375 C24.19768049 9.50967188 24.49562655 12.04368565 24.75 15.0625 C24.89695312 16.62677734 24.89695312 16.62677734 25.046875 18.22265625 C25 21 25 21 23 24 C25.31 26.31 27.62 28.62 30 31 C28.68 31.33 27.36 31.66 26 32 C23 28.25 23 28.25 23 26 C21.68 25.67 20.36 25.34 19 25 C19 24.34 19 23.68 19 23 C18.01 22.67 17.02 22.34 16 22 C16 21.34 16 20.68 16 20 C15.41605469 19.70867188 14.83210938 19.41734375 14.23046875 19.1171875 C12.87676655 18.43915102 11.52471868 17.75777954 10.17578125 17.0703125 C8.12516936 16.02996013 6.06535175 15.01078169 4 14 C3.24976563 13.63261719 2.49953125 13.26523437 1.7265625 12.88671875 C-4.8715064 9.65998718 -4.8715064 9.65998718 -12 9 C-15.75547383 11.57368136 -18.82266162 14.75562916 -22 18 C-23.1011602 19.09286583 -24.20409039 20.18395053 -25.30859375 21.2734375 C-28.22728644 24.16142955 -31.1189891 27.07443738 -34 30 C-34.66 29.67 -35.32 29.34 -36 29 C-35.4652002 28.47567383 -34.93040039 27.95134766 -34.37939453 27.41113281 C-31.9560138 25.02936196 -29.54045976 22.63980237 -27.125 20.25 C-26.28324219 19.425 -25.44148438 18.6 -24.57421875 17.75 C-23.76855469 16.95078125 -22.96289062 16.1515625 -22.1328125 15.328125 C-21.38918457 14.5949707 -20.64555664 13.86181641 -19.87939453 13.10644531 C-18.10679735 11.1196996 -17.0736479 9.4136993 -16 7 C-13.7059957 3.76719527 -11.87482476 1.29160825 -8 0 C-4.9637583 -1.51812085 -3.20988224 -0.96296467 0 0 Z M13 11 C14 13 14 13 14 13 Z " fill="#F5B16C" transform="translate(54,5)"/>
<path d="M0 0 C0.66 0.33 1.32 0.66 2 1 C2.1875 3.375 2.1875 3.375 2 6 C1.01 6.66 0.02 7.32 -1 8 C-0.80528889 9.94999129 -0.80528889 9.94999129 0 12 C2.58152302 13.72101535 3.84918025 14 7 14 C6.01 14.495 6.01 14.495 5 15 C4.34786708 17.02463255 4.34786708 17.02463255 4 19 C3.34 19 2.68 19 2 19 C2 19.66 2 20.32 2 21 C1.030625 21.4125 0.06125 21.825 -0.9375 22.25 C-3.04527588 23.14846608 -5.13993011 24.06418587 -7.22265625 25.01953125 C-18.09761236 30 -18.09761236 30 -23 30 C-24 27 -24 27 -24 23 C-21.7188203 19.88437452 -19.07336984 17.33382128 -16 15 C-15.34 15 -14.68 15 -14 15 C-13.67 14.01 -13.34 13.02 -13 12 C-12.34 12 -11.68 12 -11 12 C-11 11.34 -11 10.68 -11 10 C-9.35546875 8.37890625 -9.35546875 8.37890625 -7.1875 6.5625 C-4.68897282 4.45536324 -2.2757944 2.34758602 0 0 Z " fill="#FDBA6A" transform="translate(41,29)"/>
<path d="M0 0 C-0.99 0.99 -1.98 1.98 -3 3 C-2.505 4.485 -2.505 4.485 -2 6 C-5.43432475 9.55820438 -8.88497045 13.09944476 -12.3515625 16.6262207 C-13.52771006 17.82746502 -14.69932513 19.03316503 -15.86621094 20.2434082 C-17.5474245 21.98548342 -19.24445736 23.71071655 -20.9453125 25.43359375 C-21.46118927 25.97527695 -21.97706604 26.51696014 -22.50857544 27.07505798 C-25.84834228 30.41734705 -28.24387633 31.84484468 -33 32 C-33.66 31.67 -34.32 31.34 -35 31 C-35.35422514 27.33614888 -35.4203125 25.57415238 -33.20703125 22.55078125 C-32.41683594 21.81214844 -31.62664063 21.07351562 -30.8125 20.3125 C-30.03519531 19.56613281 -29.25789063 18.81976563 -28.45703125 18.05078125 C-26 16 -26 16 -23.59375 14.6484375 C-19.41503311 11.99268671 -16.32548837 8.18533968 -13.08007812 4.47460938 C-8.78338872 -0.09994977 -6.23644218 -0.68689276 0 0 Z " fill="#FC6242" transform="translate(43,19)"/>
<path d="M0 0 C-0.66 0 -1.32 0 -2 0 C-2 0.66 -2 1.32 -2 2 C-3.98 2.99 -3.98 2.99 -6 4 C-5.505 4.99 -5.505 4.99 -5 6 C-5.763125 6.433125 -6.52625 6.86625 -7.3125 7.3125 C-9.92319214 8.77367854 -9.92319214 8.77367854 -11.2734375 10.44921875 C-13.69579298 12.62495433 -16.259476 13.40133392 -19.3125 14.5 C-22.70154052 15.72808437 -25.89243465 16.94349415 -29.0859375 18.62109375 C-32.04127451 20.0195307 -34.07759513 20.41032693 -37.3125 20.5625 C-39.84353595 20.64445427 -39.84353595 20.64445427 -42 21 C-42.33 21.66 -42.66 22.32 -43 23 C-44.22517308 17.33357449 -44.09228867 11.76291482 -44 6 C-43.67 6 -43.34 6 -43 6 C-43 8.64 -43 11.28 -43 14 C-39.15284797 12.36291403 -35.31849314 10.70293004 -31.5 9 C-30.73816406 8.66355469 -29.97632813 8.32710937 -29.19140625 7.98046875 C-27.26163354 7.11705885 -25.34810939 6.2175255 -23.4375 5.3125 C-20.23057691 4.08803846 -17.51785785 3.68468051 -14.12109375 3.38671875 C-10.7992139 2.78107215 -7.96740473 1.27530509 -4.98046875 -0.2578125 C-3 -1 -3 -1 0 0 Z " fill="#DCC7A9" transform="translate(60,56)"/>
<path d="M0 0 C0.33 0 0.66 0 1 0 C1.08782542 3.52067351 1.14066643 7.04106144 1.1875 10.5625 C1.21263672 11.55314453 1.23777344 12.54378906 1.26367188 13.56445312 C1.33770712 20.99265625 0.59596599 25.91290531 -4.3125 31.75 C-9.61429173 36.18870935 -14.04508962 37.44560708 -20.875 37.1875 C-21.56335937 37.17396484 -22.25171875 37.16042969 -22.9609375 37.14648438 C-24.64097001 37.1114837 -26.3205935 37.05768954 -28 37 C-28 36.34 -28 35.68 -28 35 C-26.390625 33.44921875 -26.390625 33.44921875 -24.25 31.6875 C-21.79576569 29.62303065 -19.94829013 27.9282734 -18.0625 25.3125 C-15.43380167 22.36517157 -12.73702664 21.4351544 -9.12109375 19.98046875 C-6.5208346 18.77850734 -4.89399632 17.12127587 -3 15 C-2.34 15 -1.68 15 -1 15 C-0.67 10.05 -0.34 5.1 0 0 Z " fill="#3D72A9" transform="translate(83,54)"/>
<path d="M0 0 C1.32 0 2.64 0 4 0 C4.66 0.66 5.32 1.32 6 2 C6.66902344 2.66644531 7.33804688 3.33289063 8.02734375 4.01953125 C10.53361841 6.52396779 13.01850268 9.04908132 15.50390625 11.57421875 C17.1899757 13.27877291 18.87617713 14.98319654 20.5625 16.6875 C21.41263672 17.55439453 22.26277344 18.42128906 23.13867188 19.31445312 C23.96044922 20.14267578 24.78222656 20.97089844 25.62890625 21.82421875 C26.37213135 22.57791748 27.11535645 23.33161621 27.88110352 24.1081543 C29.87506657 26.05494172 29.87506657 26.05494172 32.14819336 27.07348633 C34 28 34 28 36 31 C39.22791555 33.1519437 40.28400809 33.20086443 44 33 C43.34 33.99 42.68 34.98 42 36 C41.01 36 40.02 36 39 36 C38.96241577 37.05127075 38.96241577 37.05127075 38.92407227 38.1237793 C38.80773455 41.31185488 38.68517956 44.49966242 38.5625 47.6875 C38.52318359 48.79029297 38.48386719 49.89308594 38.44335938 51.02929688 C38.40146484 52.09599609 38.35957031 53.16269531 38.31640625 54.26171875 C38.27974854 55.24100342 38.24309082 56.22028809 38.20532227 57.22924805 C38.00780667 59.89465177 37.58426967 62.39469788 37 65 C36.34 64.67 35.68 64.34 35 64 C35.1546875 63.23429687 35.309375 62.46859375 35.46875 61.6796875 C36.17038732 56.81981723 36.38180887 52.029932 36.5 47.125 C36.58121094 45.69220703 36.58121094 45.69220703 36.6640625 44.23046875 C36.76671412 38.88525245 36.32851119 35.71857401 32.76171875 31.609375 C31.52825976 30.38529593 30.27569728 29.17999453 29 28 C28.17113281 27.11570312 27.34226562 26.23140625 26.48828125 25.3203125 C25.77027344 24.59585938 25.05226563 23.87140625 24.3125 23.125 C23.58675781 22.38507812 22.86101562 21.64515625 22.11328125 20.8828125 C20.13685455 18.95466325 20.13685455 18.95466325 17.94140625 17.98046875 C15.53052189 16.76289939 14.32513559 15.27475567 12.625 13.1875 C9.62946861 9.66598666 6.77487821 6.68435784 3 4 C1.68 4 0.36 4 -1 4 C-1 4.66 -1 5.32 -1 6 C-2.57421875 7.55078125 -2.57421875 7.55078125 -4.6875 9.3125 C-9.64077494 13.53195643 -13.96511548 17.88914628 -18 23 C-19.71713872 24.94111334 -21.11327332 26.06557929 -23.375 27.375 C-27.03325205 29.63963222 -30.42986422 31.98366614 -31.640625 36.265625 C-32.04491899 39.34177492 -32.05893956 42.27330584 -32 45.375 C-31.95749317 50.05606434 -32.14475506 54.40305844 -33 59 C-33.33 59 -33.66 59 -34 59 C-34 51.41 -34 43.82 -34 36 C-35.65 35.67 -37.3 35.34 -39 35 C-39 34.01 -39 33.02 -39 32 C-37.35 32.66 -35.7 33.32 -34 34 C-33.67 33.34 -33.34 32.68 -33 32 C-32.01098216 31.09881069 -30.98992927 30.23249376 -29.953125 29.38671875 C-25.64296813 25.76226866 -21.70563151 21.81610092 -17.75 17.8125 C-16.69039062 16.74612305 -16.69039062 16.74612305 -15.609375 15.65820312 C-14.30449142 14.34466974 -13.00064608 13.03010343 -11.69824219 11.71411133 C-11.13782227 11.14845459 -10.57740234 10.58279785 -10 10 C-9.1963501 9.18740723 -9.1963501 9.18740723 -8.37646484 8.35839844 C-6.94482061 6.94554485 -5.44393301 5.69501164 -3.875 4.4375 C-0.99667845 2.32087701 -0.99667845 2.32087701 0 0 Z " fill="#EC915F" transform="translate(48,18)"/>
<path d="M0 0 C3.65415742 1.56363945 6.2119688 3.82175042 9.125 6.5 C9.99382812 7.2940625 10.86265625 8.088125 11.7578125 8.90625 C13.19408422 10.24743753 14.61045683 11.61045683 16 13 C15.625 15.125 15.625 15.125 15 17 C14.01 17 13.02 17 12 17 C12 17.99 12 18.98 12 20 C11.34 20 10.68 20 10 20 C9.67 20.66 9.34 21.32 9 22 C6.71484375 22.4140625 6.71484375 22.4140625 3.9375 22.625 C3.01839844 22.69976562 2.09929688 22.77453125 1.15234375 22.8515625 C0.08693359 22.92503906 0.08693359 22.92503906 -1 23 C-0.67 20.36 -0.34 17.72 0 15 C-0.66 14.67 -1.32 14.34 -2 14 C-3.51478702 8.17389609 -2.62779243 5.15047317 0 0 Z " fill="#FDA777" transform="translate(60,32)"/>
<path d="M0 0 C0.33 0 0.66 0 1 0 C1.42020731 4.28611459 1.58944967 6.27581898 -1.1875 9.6875 C-2.5796875 10.8321875 -2.5796875 10.8321875 -4 12 C-4.78375 12.70125 -5.5675 13.4025 -6.375 14.125 C-9 16 -9 16 -12.25 17.125 C-17.05778514 18.97414813 -19.87201083 23.05599926 -23.08203125 26.91796875 C-23.71496094 27.60503906 -24.34789063 28.29210937 -25 29 C-25.66 29 -26.32 29 -27 29 C-27 29.66 -27 30.32 -27 31 C-26.01 31.33 -25.02 31.66 -24 32 C-29.94 32 -35.88 32 -42 32 C-42 31.67 -42 31.34 -42 31 C-41.2575 30.938125 -40.515 30.87625 -39.75 30.8125 C-36.146624 29.74786618 -35.2452874 27.94693971 -33 25 C-30.00493457 22.88153908 -28.69349436 22 -25 22 C-25 21.34 -25 20.68 -25 20 C-21.32547562 17.1605948 -19.73113419 16 -15 16 C-14.938125 15.46375 -14.87625 14.9275 -14.8125 14.375 C-13.16998505 9.57380245 -10.14216043 6.66245305 -5.875 4.1875 C-3.94359138 3.38974427 -1.98244246 2.66081415 0 2 C0 1.34 0 0.68 0 0 Z " fill="#4B8FB3" transform="translate(82,60)"/>
<path d="M0 0 C-0.9590625 0.7115625 -0.9590625 0.7115625 -1.9375 1.4375 C-3.88293306 2.83738726 -3.88293306 2.83738726 -5 4 C-3.515 4.495 -3.515 4.495 -2 5 C-3.55851755 5.82011312 -5.12201716 6.63076213 -6.6875 7.4375 C-7.99267578 8.11619141 -7.99267578 8.11619141 -9.32421875 8.80859375 C-11.90998264 9.95991928 -14.21356528 10.56320753 -17 11 C-17 11.66 -17 12.32 -17 13 C-17.66 13 -18.32 13 -19 13 C-19 13.66 -19 14.32 -19 15 C-25.09339169 16.88341198 -29.72532201 17.0748291 -36 16 C-36 14.35 -36 12.7 -36 11 C-35.11957031 10.81824219 -34.23914063 10.63648437 -33.33203125 10.44921875 C-32.17058594 10.19785156 -31.00914063 9.94648437 -29.8125 9.6875 C-28.66394531 9.44386719 -27.51539063 9.20023438 -26.33203125 8.94921875 C-23.06929258 8.01973986 -20.84972548 6.79256925 -18 5 C-16.16302049 4.26781384 -14.30774025 3.57998865 -12.4375 2.9375 C-8.54635832 1.59540026 -8.54635832 1.59540026 -4.84765625 -0.18359375 C-3 -1 -3 -1 0 0 Z " fill="#98C5C1" transform="translate(54,66)"/>
<path d="M0 0 C0.3125 2.6875 0.3125 2.6875 0 6 C-3.13171359 9.86858737 -6.86366394 12.29871931 -11 15 C-12.00637737 15.90966058 -13.00637764 16.82642413 -14 17.75 C-17.38193136 20.28644852 -18.88120432 20.49033282 -23 20 C-23 19.01 -23 18.02 -23 17 C-23.99 17 -24.98 17 -26 17 C-26.66 16.34 -27.32 15.68 -28 15 C-26.94941406 14.57589844 -25.89882813 14.15179688 -24.81640625 13.71484375 C-16.62097713 10.32073771 -9.76860726 6.84411456 -3 1 C-1 0 -1 0 0 0 Z " fill="#8CA6C2" transform="translate(83,54)"/>
<path d="M0 0 C0.33 0 0.66 0 1 0 C1.4939788 5.63135828 1.22497076 8.99557444 -2.37890625 13.45703125 C-6.21035478 17.10383166 -10.25428468 18.87530605 -15.5 19.25 C-16.325 19.1675 -17.15 19.085 -18 19 C-15.88766391 11.75770485 -11.1841981 8.08833765 -5 4 C-3.35471591 3.28218215 -1.69266344 2.59758907 0 2 C0 1.34 0 0.68 0 0 Z " fill="#2663A1" transform="translate(82,72)"/>
<path d="M0 0 C2.375 1 2.375 1 3.484375 2.671875 C4.59198322 5.56720175 4.79850666 8.16043541 5 11.25 C5.07476562 12.32765625 5.14953125 13.4053125 5.2265625 14.515625 C5.30003906 15.74539062 5.30003906 15.74539062 5.375 17 C4.385 17.66 3.395 18.32 2.375 19 C0.04996066 16.93031698 -2.25761727 14.84208986 -4.5625 12.75 C-5.22185547 12.16347656 -5.88121094 11.57695312 -6.56054688 10.97265625 C-7.18896484 10.39902344 -7.81738281 9.82539063 -8.46484375 9.234375 C-9.04613037 8.71069336 -9.62741699 8.18701172 -10.22631836 7.64746094 C-11.80958867 5.7825791 -12.22312786 4.38852823 -12.625 2 C-10.645 2.66 -8.665 3.32 -6.625 4 C-6.068125 3.319375 -5.51125 2.63875 -4.9375 1.9375 C-2.625 0 -2.625 0 0 0 Z M-6.625 7 C-5.625 9 -5.625 9 -5.625 9 Z " fill="#F9B76D" transform="translate(73.625,9)"/>
<path d="M0 0 C-1 3 -1 3 -2.56640625 4.09765625 C-8.03990361 6.74335849 -13.2958144 8.30786844 -19.2578125 9.421875 C-23.79150835 10.31324571 -27.12468876 11.48108349 -31.09375 13.98046875 C-34.81182287 15.96902822 -38.94218076 16.92226934 -43 18 C-42 15 -42 15 -40.48120117 13.92504883 C-39.84158447 13.60560303 -39.20196777 13.28615723 -38.54296875 12.95703125 C-37.84236328 12.60576172 -37.14175781 12.25449219 -36.41992188 11.89257812 C-35.31487305 11.35793945 -35.31487305 11.35793945 -34.1875 10.8125 C-33.46240234 10.44447266 -32.73730469 10.07644531 -31.99023438 9.69726562 C-28.23443873 7.8451395 -26.32708051 7 -22 7 C-22 6.34 -22 5.68 -22 5 C-19.46148538 4.15583837 -16.91989146 3.32452701 -14.375 2.5 C-13.66214844 2.26152344 -12.94929688 2.02304687 -12.21484375 1.77734375 C-8.00693976 0.42618192 -4.47763202 -0.28250044 0 0 Z " fill="#EECB9C" transform="translate(60,52)"/>
<path d="M0 0 C0.62261719 0.34160156 1.24523437 0.68320312 1.88671875 1.03515625 C-0.63407297 3.70156783 -3.18312561 6.33919024 -5.73828125 8.97265625 C-6.45113281 9.72740234 -7.16398437 10.48214844 -7.8984375 11.25976562 C-13.32468388 16.8104672 -13.32468388 16.8104672 -17.63671875 18.0390625 C-18.45398438 18.03777344 -19.27125 18.03648438 -20.11328125 18.03515625 C-20.44328125 16.38515625 -20.77328125 14.73515625 -21.11328125 13.03515625 C-4.41445655 -2.01547277 -4.41445655 -2.01547277 0 0 Z " fill="#FC4E3A" transform="translate(30.11328125,32.96484375)"/>
<path d="M0 0 C3 1 3 1 3.9609375 2.85546875 C4.30382812 3.56316406 4.64671875 4.27085938 5 5 C6.1745666 6.14002052 7.38528266 7.2436902 8.625 8.3125 C11.48655415 11.07291814 11.95260867 11.6787921 12.5625 15.8125 C12 19 12 19 10 21 C7.6875 21.4375 7.6875 21.4375 5 21 C1.50330013 18.08608344 -0.83623427 14.98588425 -3 11 C-0.95301586 8.95301586 3.30411241 9.29954307 6 9 C5.566875 8.51789062 5.13375 8.03578125 4.6875 7.5390625 C4.130625 6.90742187 3.57375 6.27578125 3 5.625 C2.443125 4.99851562 1.88625 4.37203125 1.3125 3.7265625 C0 2 0 2 0 0 Z " fill="#FA5640" transform="translate(81,30)"/>
<path d="M0 0 C2.02054804 1.64169528 4.02043058 3.30911778 6 5 C6 5.33 6 5.66 6 6 C5.13375 6.268125 4.2675 6.53625 3.375 6.8125 C0.04996592 7.90340464 0.04996592 7.90340464 -2.75 9.375 C-5.4253241 10.71266205 -8.02670004 11.80718178 -10.8125 12.875 C-15.20511928 14.58287164 -19.16594531 16.6956917 -23.1875 19.14453125 C-23.785625 19.42683594 -24.38375 19.70914063 -25 20 C-25.66 19.67 -26.32 19.34 -27 19 C-26.360625 18.525625 -25.72125 18.05125 -25.0625 17.5625 C-23.11706694 16.16261274 -23.11706694 16.16261274 -22 15 C-22.99 14.67 -23.98 14.34 -25 14 C-22.69 13.34 -20.38 12.68 -18 12 C-18 11.34 -18 10.68 -18 10 C-15.11387138 8.07591425 -14.2478839 7.72661088 -11 7.4375 C-8.40222383 7.1964185 -6.51908403 6.83969468 -4 6 C-4 5.01 -4 4.02 -4 3 C-3.01 2.67 -2.02 2.34 -1 2 C-0.67 1.34 -0.34 0.68 0 0 Z " fill="#C4B7B6" transform="translate(76,46)"/>
<path d="M0 0 C4.03520597 1.58962659 8.01811282 3.28232318 12 5 C12 5.66 12 6.32 12 7 C13.670625 7.4021875 13.670625 7.4021875 15.375 7.8125 C19 9 19 9 21 12 C22.99172182 12.69100553 24.99161804 13.35902703 27 14 C27.33 14.66 27.66 15.32 28 16 C24.04 16.495 24.04 16.495 20 17 C19.67 17.99 19.34 18.98 19 20 C15.8293305 16.85817898 12.66414446 13.71089125 9.5 10.5625 C8.59378906 9.66466797 7.68757813 8.76683594 6.75390625 7.84179688 C5.89667969 6.98779297 5.03945312 6.13378906 4.15625 5.25390625 C3.36025391 4.46314697 2.56425781 3.6723877 1.74414062 2.85766602 C0 1 0 1 0 0 Z " fill="#FC8D3E" transform="translate(59,24)"/>
<path d="M0 0 C0.495 0.99 0.495 0.99 1 2 C0.236875 2.433125 -0.52625 2.86625 -1.3125 3.3125 C-3.92319214 4.77367854 -3.92319214 4.77367854 -5.2734375 6.44921875 C-7.69579298 8.62495433 -10.259476 9.40133392 -13.3125 10.5 C-16.70154052 11.72808437 -19.89243465 12.94349415 -23.0859375 14.62109375 C-26.04127451 16.0195307 -28.07759513 16.41032693 -31.3125 16.5625 C-33.84353595 16.64445427 -33.84353595 16.64445427 -36 17 C-36.33 17.66 -36.66 18.32 -37 19 C-37 17.68 -37 16.36 -37 15 C-35.96101563 14.61328125 -34.92203125 14.2265625 -33.8515625 13.828125 C-22.39623034 9.55559571 -11.09748988 5.14788504 0 0 Z " fill="#C6C7B4" transform="translate(54,60)"/>
<path d="M0 0 C0.33 0 0.66 0 1 0 C1.42020731 4.28611459 1.58944967 6.27581898 -1.1875 9.6875 C-2.115625 10.450625 -3.04375 11.21375 -4 12 C-5.2065625 13.11375 -5.2065625 13.11375 -6.4375 14.25 C-9.34681227 16.23684741 -11.5235443 16.67660877 -15 17 C-14.58105442 12.25195006 -12.42533497 9.16957662 -9 6 C-6.01424681 4.26826315 -3.26714869 3.08904956 0 2 C0 1.34 0 0.68 0 0 Z " fill="#467DB7" transform="translate(82,60)"/>
<path d="M0 0 C0.66 0.66 1.32 1.32 2 2 C1.67 2.99 1.34 3.98 1 5 C-4.53520792 6.81350891 -9.80087541 7.35608349 -15.59375 7.51953125 C-16.38471069 7.54601242 -17.17567139 7.57249359 -17.99060059 7.59977722 C-19.65098448 7.65209172 -21.31152125 7.69974634 -22.97216797 7.74291992 C-25.49411711 7.81233807 -28.01415395 7.9084068 -30.53515625 8.00585938 C-32.15880698 8.05371217 -33.78250508 8.09998887 -35.40625 8.14453125 C-36.52066467 8.19115654 -36.52066467 8.19115654 -37.65759277 8.23872375 C-43.08101491 8.34343498 -47.0168738 7.14551267 -52 5 C-52 4.01 -52 3.02 -52 2 C-48.27142874 2.50192305 -44.63530829 3.03058446 -41 4 C-36.45756496 5.14200055 -32.08902263 5.15326192 -27.4375 5.125 C-26.24519775 5.11992432 -26.24519775 5.11992432 -25.02880859 5.11474609 C-11.49152463 5.72315801 -11.49152463 5.72315801 0 0 Z " fill="#608EA9" transform="translate(76,87)"/>
<path d="M0 0 C0 0.66 0 1.32 0 2 C-2.9782818 3.41853215 -5.95778972 4.83447122 -8.9375 6.25 C-9.76830078 6.64574219 -10.59910156 7.04148437 -11.45507812 7.44921875 C-12.28330078 7.84238281 -13.11152344 8.23554687 -13.96484375 8.640625 C-14.79612793 9.03572266 -15.62741211 9.43082031 -16.48388672 9.83789062 C-19.6820299 11.31500702 -22.92700747 12.67106168 -26.18969727 13.99902344 C-28.33464441 15.00391601 -28.33464441 15.00391601 -30 18 C-31.32 17.01 -32.64 16.02 -34 15 C-33.34 14.34 -32.68 13.68 -32 13 C-31.01 13 -30.02 13 -29 13 C-29 12.34 -29 11.68 -29 11 C-27.02 10.67 -25.04 10.34 -23 10 C-23 9.34 -23 8.68 -23 8 C-17.39941495 5.4460295 -11.77546263 3.12780202 -6 1 C-4 0 -4 0 0 0 Z " fill="#66BCC6" transform="translate(59,73)"/>
<path d="M0 0 C0.66 0 1.32 0 2 0 C1.67 0.99 1.34 1.98 1 3 C0.01 3 -0.98 3 -2 3 C-2 3.99 -2 4.98 -2 6 C-2.66 6 -3.32 6 -4 6 C-4.33 6.66 -4.66 7.32 -5 8 C-7.28515625 8.4140625 -7.28515625 8.4140625 -10.0625 8.625 C-10.98160156 8.69976562 -11.90070312 8.77453125 -12.84765625 8.8515625 C-13.91306641 8.92503906 -13.91306641 8.92503906 -15 9 C-14.64 2.64 -14.64 2.64 -12 0 C-7.781157 -1.406281 -4.31467947 -0.70357249 0 0 Z " fill="#E7A890" transform="translate(74,46)"/>
<path d="M0 0 C-3.75 3 -3.75 3 -6 3 C-6.33 3.99 -6.66 4.98 -7 6 C-8.6796875 6.80859375 -8.6796875 6.80859375 -10.875 7.4375 C-14.50626395 8.52111527 -17.98163351 9.7801534 -21.5 11.1875 C-26.57981805 13.07183307 -30.61540437 13.35308824 -36 13 C-36 12.34 -36 11.68 -36 11 C-35.11957031 10.81824219 -34.23914063 10.63648437 -33.33203125 10.44921875 C-32.17058594 10.19785156 -31.00914063 9.94648437 -29.8125 9.6875 C-28.66394531 9.44386719 -27.51539063 9.20023438 -26.33203125 8.94921875 C-23.06929258 8.01973986 -20.84972548 6.79256925 -18 5 C-16.16302049 4.26781384 -14.30774025 3.57998865 -12.4375 2.9375 C-8.54635832 1.59540026 -8.54635832 1.59540026 -4.84765625 -0.18359375 C-3 -1 -3 -1 0 0 Z " fill="#B3C7BB" transform="translate(54,66)"/>
<path d="M0 0 C-2.90549444 6.26540271 -7.00685399 10.61925097 -13 14 C-16.76883752 17.25490513 -18.35580782 19.09853779 -19 24 C-19.04302915 26.12456431 -19.04037276 28.25038355 -19 30.375 C-18.95749317 35.05606434 -19.14475506 39.40305844 -20 44 C-20.33 44 -20.66 44 -21 44 C-21 36.41 -21 28.82 -21 21 C-22.65 20.67 -24.3 20.34 -26 20 C-26 19.01 -26 18.02 -26 17 C-23.525 17.99 -23.525 17.99 -21 19 C-20.67 18.34 -20.34 17.68 -20 17 C-18.41972641 15.66020282 -16.83741706 14.3227479 -15.24609375 12.99609375 C-11.91006084 10.03137581 -8.82059179 6.82853567 -5.73291016 3.60766602 C-2.2144224 0 -2.2144224 0 0 0 Z " fill="#F2925C" transform="translate(35,33)"/>
<path d="M0 0 C0.67095703 0.58007812 0.67095703 0.58007812 1.35546875 1.171875 C4.10058964 3.53654204 6.84491227 5.87737249 9.6875 8.125 C11.95177639 9.96089977 13.94079945 11.94079945 16 14 C18.43348971 16.19799071 19.43942527 16.961779 22.75 17.1875 C23.4925 17.125625 24.235 17.06375 25 17 C24.34 17.99 23.68 18.98 23 20 C22.01 20 21.02 20 20 20 C19.97494385 20.70084717 19.9498877 21.40169434 19.92407227 22.1237793 C19.80773455 25.31185488 19.68517956 28.49966242 19.5625 31.6875 C19.52318359 32.79029297 19.48386719 33.89308594 19.44335938 35.02929688 C19.40146484 36.09599609 19.35957031 37.16269531 19.31640625 38.26171875 C19.27974854 39.24100342 19.24309082 40.22028809 19.20532227 41.22924805 C19.00780667 43.89465177 18.58426967 46.39469788 18 49 C17.34 48.67 16.68 48.34 16 48 C16.1546875 47.23429687 16.309375 46.46859375 16.46875 45.6796875 C17.17038732 40.81981723 17.38180887 36.029932 17.5 31.125 C17.55414063 30.16980469 17.60828125 29.21460937 17.6640625 28.23046875 C17.76602801 22.92097884 17.34205407 19.73108637 13.80859375 15.640625 C12.56263854 14.40288974 11.29402384 13.18739011 10 12 C9.04118923 11.03562015 8.08395846 10.06966469 7.12890625 9.1015625 C5.40072166 7.43387753 3.67153501 5.76723042 1.94140625 4.1015625 C0 2 0 2 0 0 Z " fill="#B7907B" transform="translate(67,34)"/>
<path d="M0 0 C0.66 0.99 1.32 1.98 2 3 C1.34 3.33 0.68 3.66 0 4 C-0.66 3.34 -1.32 2.68 -2 2 C-6.26646029 2.08049925 -8.41864184 2.52434332 -11.75 5.25 C-13.99756866 7.84580884 -13.99756866 7.84580884 -15.38989258 10.40893555 C-17.03975979 13.06398342 -18.78890556 15.01764382 -21.01171875 17.20703125 C-21.76904297 17.95791016 -22.52636719 18.70878906 -23.30664062 19.48242188 C-24.48516602 20.63581055 -24.48516602 20.63581055 -25.6875 21.8125 C-26.48478516 22.60076172 -27.28207031 23.38902344 -28.10351562 24.20117188 C-30.0645551 26.13872585 -32.03011881 28.07144276 -34 30 C-34.66 29.67 -35.32 29.34 -36 29 C-35.4652002 28.47567383 -34.93040039 27.95134766 -34.37939453 27.41113281 C-31.9560138 25.02936196 -29.54045976 22.63980237 -27.125 20.25 C-26.28324219 19.425 -25.44148438 18.6 -24.57421875 17.75 C-23.76855469 16.95078125 -22.96289062 16.1515625 -22.1328125 15.328125 C-21.38918457 14.5949707 -20.64555664 13.86181641 -19.87939453 13.10644531 C-18.10679735 11.1196996 -17.0736479 9.4136993 -16 7 C-13.7059957 3.76719527 -11.87482476 1.29160825 -8 0 C-5.06791253 -1.46604374 -3.11702298 -0.77925574 0 0 Z " fill="#EE9569" transform="translate(54,5)"/>
<path d="M0 0 C-2.64 1.98 -5.28 3.96 -8 6 C-7.67 6.66 -7.34 7.32 -7 8 C-10.96 8 -14.92 8 -19 8 C-19.33 7.34 -19.66 6.68 -20 6 C-18.27559635 5.01246936 -16.54524974 4.03531194 -14.8125 3.0625 C-13.36810547 2.24458984 -13.36810547 2.24458984 -11.89453125 1.41015625 C-7.33522917 -0.8110422 -4.96365427 -1.24091357 0 0 Z " fill="#3DA7C8" transform="translate(54,83)"/>
<path d="M0 0 C-1.34988317 4.04964951 -3.44179062 4.74190559 -7 7 C-7.825 7.70125 -8.65 8.4025 -9.5 9.125 C-12.24645039 11.18483779 -14.71147457 12.08227197 -18 13 C-16.79618552 10.50638429 -15.54571278 8.31856917 -14 6 C-13.67 5.34 -13.34 4.68 -13 4 C-8.42577266 0.95051511 -5.64033805 -0.55027688 0 0 Z " fill="#9CA0B8" transform="translate(83,52)"/>
<path d="M0 0 C0 0.66 0 1.32 0 2 C0.5775 2.226875 1.155 2.45375 1.75 2.6875 C4.5663661 4.33038023 6.08077114 6.39533227 8 9 C6.68 9 5.36 9 4 9 C4 8.34 4 7.68 4 7 C-0.02499936 6.09112918 -4.00399966 5.69836427 -8.109375 5.37890625 C-9.04523437 5.19134766 -9.04523437 5.19134766 -10 5 C-10.33 4.34 -10.66 3.68 -11 3 C-8.21756596 -1.17365106 -4.53441502 -0.22300402 0 0 Z " fill="#F7BF7C" transform="translate(54,7)"/>
<path d="M0 0 C-0.99 0.99 -1.98 1.98 -3 3 C-2.67 3.99 -2.34 4.98 -2 6 C-3.98 7.65 -5.96 9.3 -8 11 C-8 9.35 -8 7.7 -8 6 C-8.9075 6.45375 -9.815 6.9075 -10.75 7.375 C-13.16666667 8.58333333 -15.58333333 9.79166667 -18 11 C-16.53621403 9.26297398 -15.06347112 7.53614247 -13.5703125 5.82421875 C-12.3785665 4.4397775 -11.23877587 3.01040863 -10.125 1.5625 C-6.8187188 -0.86858912 -4.03024157 -0.26868277 0 0 Z " fill="#FE7247" transform="translate(43,19)"/>
<path d="M0 0 C0.99 0.33 1.98 0.66 3 1 C2.01 2.485 2.01 2.485 1 4 C0.34 4 -0.32 4 -1 4 C-1.66 5.32 -2.32 6.64 -3 8 C-3.66 8 -4.32 8 -5 8 C-5.309375 8.61875 -5.61875 9.2375 -5.9375 9.875 C-6.625 11.25 -7.3125 12.625 -8 14 C-7.01 14.33 -6.02 14.66 -5 15 C-7.97 15 -10.94 15 -14 15 C-14 14.34 -14 13.68 -14 13 C-12.390625 11.44921875 -12.390625 11.44921875 -10.25 9.6875 C-7.08790882 7.01145463 -4.52293187 4.2992186 -2 1 C-1.34 0.67 -0.68 0.34 0 0 Z " fill="#3080B6" transform="translate(69,76)"/>
<path d="M0 0 C2.9375 0.75 2.9375 0.75 6 2 C6.875 4.125 6.875 4.125 7 6 C7.66 6 8.32 6 9 6 C9 6.66 9 7.32 9 8 C9.66 8.33 10.32 8.66 11 9 C12.35308313 10.31328657 13.68870078 11.64499081 15 13 C15.33 11.02 15.66 9.04 16 7 C16.33 7 16.66 7 17 7 C17.33 9.64 17.66 12.28 18 15 C17.01 15.66 16.02 16.32 15 17 C12.67496066 14.93031698 10.36738273 12.84208986 8.0625 10.75 C7.40314453 10.16347656 6.74378906 9.57695312 6.06445312 8.97265625 C5.43603516 8.39902344 4.80761719 7.82539063 4.16015625 7.234375 C3.57886963 6.71069336 2.99758301 6.18701172 2.39868164 5.64746094 C0.81541133 3.7825791 0.40187214 2.38852823 0 0 Z " fill="#EC915B" transform="translate(61,11)"/>
<path d="M0 0 C0.33 0.99 0.66 1.98 1 3 C0.48050781 3.30292969 -0.03898437 3.60585938 -0.57421875 3.91796875 C-4.97265932 6.56028517 -8.4036656 9.30376743 -12 13 C-14.1875 14.375 -14.1875 14.375 -16 15 C-16.66 14.67 -17.32 14.34 -18 14 C-17.01 13.67 -16.02 13.34 -15 13 C-15 12.34 -15 11.68 -15 11 C-14.02351983 9.97702078 -13.01868662 8.98095748 -12 8 C-11.566875 7.319375 -11.13375 6.63875 -10.6875 5.9375 C-8.4392151 3.35613586 -6.24277771 2.94581017 -3 2 C-2.01 1.34 -1.02 0.68 0 0 Z " fill="#7399C3" transform="translate(81,59)"/>
<path d="M0 0 C1.9375 0.6875 1.9375 0.6875 4 2 C4.75 4.625 4.75 4.625 5 7 C3.35 8.32 1.7 9.64 0 11 C-0.66 9.68 -1.32 8.36 -2 7 C-1.67 6.67 -1.34 6.34 -1 6 C-2.32 6 -3.64 6 -5 6 C-3.63016497 2.83884224 -3.0109362 2.0072908 0 0 Z " fill="#FE8F4D" transform="translate(41,14)"/>
<path d="M0 0 C0.94101562 0.10957031 1.88203125 0.21914062 2.8515625 0.33203125 C3.78742187 0.42871094 4.72328125 0.52539062 5.6875 0.625 C8.49368854 1.14772139 10.87150886 1.99357119 13.4765625 3.14453125 C13.4765625 4.13453125 13.4765625 5.12453125 13.4765625 6.14453125 C14.1159375 6.43328125 14.7553125 6.72203125 15.4140625 7.01953125 C17.4765625 8.14453125 17.4765625 8.14453125 18.4765625 10.14453125 C16.07804924 9.21607451 13.71223596 8.25598057 11.38671875 7.15625 C5.72584525 4.49515562 0.80237927 3.14453125 -5.5234375 3.14453125 C-3.73334514 0.81981399 -2.99046809 0.17128068 0 0 Z " fill="#FEAE58" transform="translate(44.5234375,10.85546875)"/>
<path d="M0 0 C0.33 0 0.66 0 1 0 C1 2.31 1 4.62 1 7 C0.01 7 -0.98 7 -2 7 C-2.66 7.495 -3.32 7.99 -4 8.5 C-6 10 -6 10 -9 10 C-9 10.66 -9 11.32 -9 12 C-10.98 12.66 -12.96 13.32 -15 14 C-10.74920938 7.65396152 -7.37460132 4.45820044 0 2 C0 1.34 0 0.68 0 0 Z " fill="#5D87BB" transform="translate(82,60)"/>
<path d="M0 0 C1.98 0 3.96 0 6 0 C5 3 5 3 3.43359375 4.09765625 C-1.3194078 6.39509536 -5.78039286 8.10006773 -11 9 C-11.66 8.34 -12.32 7.68 -13 7 C-12.195625 6.87625 -11.39125 6.7525 -10.5625 6.625 C-9.716875 6.41875 -8.87125 6.2125 -8 6 C-7.67 5.34 -7.34 4.68 -7 4 C-5 3.33333333 -3 2.66666667 -1 2 C-0.67 1.34 -0.34 0.68 0 0 Z " fill="#E7BFA0" transform="translate(54,52)"/>
<path d="M0 0 C2.02054804 1.64169528 4.02043058 3.30911778 6 5 C6 5.33 6 5.66 6 6 C5.13375 6.268125 4.2675 6.53625 3.375 6.8125 C0.08208036 7.97111987 -2.91127875 9.38209839 -6 11 C-6 9.35 -6 7.7 -6 6 C-5.34 6 -4.68 6 -4 6 C-4 5.01 -4 4.02 -4 3 C-3.01 2.67 -2.02 2.34 -1 2 C-0.67 1.34 -0.34 0.68 0 0 Z " fill="#BE9AA2" transform="translate(76,46)"/>
<path d="M0 0 C0 2.31 0 4.62 0 7 C-3.96 8.98 -3.96 8.98 -8 11 C-8.33 10.01 -8.66 9.02 -9 8 C-7.85546875 6.2109375 -7.85546875 6.2109375 -6.1875 4.375 C-5.64480469 3.76398438 -5.10210937 3.15296875 -4.54296875 2.5234375 C-1.98717949 0 -1.98717949 0 0 0 Z " fill="#225896" transform="translate(78,80)"/>
<path d="M0 0 C-0.61488281 0.32613281 -1.22976562 0.65226562 -1.86328125 0.98828125 C-2.67152344 1.42527344 -3.47976562 1.86226563 -4.3125 2.3125 C-5.11300781 2.74175781 -5.91351563 3.17101562 -6.73828125 3.61328125 C-9.02616208 4.88558849 -9.02616208 4.88558849 -10.625 6.6875 C-11.305625 7.3371875 -11.305625 7.3371875 -12 8 C-14.6875 7.6875 -14.6875 7.6875 -17 7 C-15.9681358 4.11685002 -15.29325381 3.15500558 -12.5390625 1.69921875 C-11.57742187 1.36535156 -10.61578125 1.03148438 -9.625 0.6875 C-8.66851562 0.34074219 -7.71203125 -0.00601563 -6.7265625 -0.36328125 C-3.97200522 -1.00653746 -2.6163432 -0.96097914 0 0 Z " fill="#53BAC9" transform="translate(47,83)"/>
<path d="M0 0 C0.556875 0.226875 1.11375 0.45375 1.6875 0.6875 C0.945 1.244375 0.2025 1.80125 -0.5625 2.375 C-3.40679061 4.53192397 -3.40679061 4.53192397 -5.0625 7.4375 C-7.3125 9.6875 -7.3125 9.6875 -9.5625 10.00390625 C-11.83319159 10.00035829 -14.0528768 9.90477146 -16.3125 9.6875 C-16.3125 9.3575 -16.3125 9.0275 -16.3125 8.6875 C-15.57 8.625625 -14.8275 8.56375 -14.0625 8.5 C-10.459124 7.43536618 -9.5577874 5.63443971 -7.3125 2.6875 C-3.15982824 -0.42700382 -3.15982824 -0.42700382 0 0 Z " fill="#589AB2" transform="translate(56.3125,82.3125)"/>
<path d="M0 0 C-0.66 0 -1.32 0 -2 0 C-2 0.66 -2 1.32 -2 2 C-3.43554025 2.50559908 -4.8735202 3.0042749 -6.3125 3.5 C-7.51326172 3.91765625 -7.51326172 3.91765625 -8.73828125 4.34375 C-11 5 -11 5 -14 5 C-14 5.66 -14 6.32 -14 7 C-17.47325181 8.1577506 -20.36067448 8.06866652 -24 8 C-24 7.01 -24 6.02 -24 5 C-22.85724609 4.85304688 -22.85724609 4.85304688 -21.69140625 4.703125 C-15.53210074 3.81114068 -10.36111324 2.61675055 -4.83984375 -0.29296875 C-3 -1 -3 -1 0 0 Z " fill="#A4C9BE" transform="translate(42,74)"/>
<path d="M0 0 C-4.02698938 4.97451629 -11.05855325 6.48551357 -17 8 C-17.66 8 -18.32 8 -19 8 C-19 7.01 -19 6.02 -19 5 C-15.97265625 4.75585938 -15.97265625 4.75585938 -12.9453125 4.51171875 C-10.60480784 4.12606964 -10.60480784 4.12606964 -9 1 C-5.62745872 -0.77502172 -3.61207747 -1.33780647 0 0 Z " fill="#FFC373" transform="translate(37,51)"/>
<path d="M0 0 C1.23556641 0.01740234 1.23556641 0.01740234 2.49609375 0.03515625 C3.32238281 0.04417969 4.14867188 0.05320313 5 0.0625 C5.63808594 0.07410156 6.27617188 0.08570313 6.93359375 0.09765625 C7.26359375 1.41765625 7.59359375 2.73765625 7.93359375 4.09765625 C5.41009975 5.2893062 3.56121552 6.13352035 0.74609375 5.97265625 C-1.64370132 4.81896208 -2.12803839 3.52177323 -3.06640625 1.09765625 C-2.06640625 0.09765625 -2.06640625 0.09765625 0 0 Z " fill="#FE6843" transform="translate(81.06640625,39.90234375)"/>
<path d="M0 0 C-3.52620227 4.35589692 -8.59714206 5.75505655 -13.9375 6.6875 C-14.948125 6.790625 -15.95875 6.89375 -17 7 C-17 6.34 -17 5.68 -17 5 C-11.14137063 1.43887234 -6.95103087 -0.19860088 0 0 Z " fill="#A7B6BE" transform="translate(65,64)"/>
<path d="M0 0 C4.61662279 1.26957127 8.14858085 3.22504367 12.0703125 5.87890625 C14.05023894 7.0291874 15.76418261 7.55780501 18 8 C18 8.66 18 9.32 18 10 C19.32 10.33 20.64 10.66 22 11 C22 11.66 22 12.32 22 13 C20.02 12.34 18.04 11.68 16 11 C16 10.34 16 9.68 16 9 C14.63875 8.8453125 14.63875 8.8453125 13.25 8.6875 C9.86853146 7.97218935 8.59116318 7.17323363 6 5 C5.113125 4.484375 4.22625 3.96875 3.3125 3.4375 C1 2 1 2 0 0 Z " fill="#FE9841" transform="translate(55,20)"/>
<path d="M0 0 C0 0.66 0 1.32 0 2 C-3.3067262 3.85499275 -5.84253007 4.97828001 -9.625 5.5 C-12.97334102 5.71982261 -12.97334102 5.71982261 -15.0625 7.5625 C-17.73147608 9.54270806 -19.76493417 9.22057267 -23 9 C-17.36273202 5.24182135 -12.58893311 2.67953197 -6 1 C-4 0 -4 0 0 0 Z " fill="#77BDC6" transform="translate(59,73)"/>
<path d="M0 0 C1.17755859 0.11408203 1.17755859 0.11408203 2.37890625 0.23046875 C4.4375 0.8125 4.4375 0.8125 6.4375 3.8125 C3.7975 4.1425 1.1575 4.4725 -1.5625 4.8125 C-1.8925 5.8025 -2.2225 6.7925 -2.5625 7.8125 C-4.2125 5.8325 -5.8625 3.8525 -7.5625 1.8125 C-4.29333718 -0.36694188 -3.69969614 -0.42055854 0 0 Z " fill="#FB7B49" transform="translate(80.5625,36.1875)"/>
<path d="M0 0 C0.33 0 0.66 0 1 0 C1.66 2.64 2.32 5.28 3 8 C4.65 8 6.3 8 8 8 C8.33 10.97 8.66 13.94 9 17 C6 16 6 16 4.8125 13.9375 C4.544375 13.298125 4.27625 12.65875 4 12 C3.34 12 2.68 12 2 12 C1.46809459 10.56656 0.94984742 9.12804633 0.4375 7.6875 C0.14746094 6.88699219 -0.14257812 6.08648437 -0.44140625 5.26171875 C-1 3 -1 3 0 0 Z " fill="#889BA1" transform="translate(15,74)"/>
<path d="M0 0 C0.66 0 1.32 0 2 0 C1.34 1.32 0.68 2.64 0 4 C-0.66 4 -1.32 4 -2 4 C-2 4.99 -2 5.98 -2 7 C-3.64488294 8.68816933 -5.31337542 10.35353315 -7 12 C-8.29519995 14.16620544 -8.29519995 14.16620544 -9 16 C-10.32 16 -11.64 16 -13 16 C-10.46459848 10.00723278 -5.59155566 5.46401245 -1 1 C-0.67 0.67 -0.34 0.34 0 0 Z " fill="#2E74AE" transform="translate(74,74)"/>
<path d="M0 0 C1.14926266 0.95421808 2.29430541 1.91352045 3.4375 2.875 C4.07558594 3.40867188 4.71367188 3.94234375 5.37109375 4.4921875 C7 6 7 6 8 8 C5.69 8.33 3.38 8.66 1 9 C-0.625 6.75 -0.625 6.75 -2 4 C-1.0859375 1.828125 -1.0859375 1.828125 0 0 Z " fill="#F19D7A" transform="translate(68,38)"/>
<path d="M0 0 C-3 2 -3 2 -6 2 C-6 2.66 -6 3.32 -6 4 C-7.98 4.66 -9.96 5.32 -12 6 C-12.66 4.35 -13.32 2.7 -14 1 C-9.32798795 -0.20568053 -4.78503708 -0.09382426 0 0 Z " fill="#7BC8C6" transform="translate(36,82)"/>
<path d="M0 0 C0 1.98 0 3.96 0 6 C-2.97411124 7.23921302 -5.85262818 8.30058404 -9 9 C-8.66032174 5.82966958 -8.00130809 5.00117393 -5.5625 2.8125 C-1.5862069 0 -1.5862069 0 0 0 Z " fill="#7F8EB7" transform="translate(83,54)"/>
<path d="M0 0 C1.66611905 -0.042721 3.33382885 -0.04063832 5 0 C6 1 6 1 6.0625 4.5625 C6.041875 5.696875 6.02125 6.83125 6 8 C4.0625 7.1875 4.0625 7.1875 2 6 C1.67 5.01 1.34 4.02 1 3 C0.34 3 -0.32 3 -1 3 C-0.67 2.01 -0.34 1.02 0 0 Z " fill="#FDA233" transform="translate(71,16)"/>
<path d="M0 0 C0.66 0.99 1.32 1.98 2 3 C0.02 3.99 0.02 3.99 -2 5 C-2 5.66 -2 6.32 -2 7 C-3.98 7.66 -5.96 8.32 -8 9 C-8 8.01 -8 7.02 -8 6 C-6.25 4.39453125 -6.25 4.39453125 -4 2.8125 C-3.2575 2.28269531 -2.515 1.75289063 -1.75 1.20703125 C-1.1725 0.80871094 -0.595 0.41039063 0 0 Z " fill="#76A6C8" transform="translate(68,65)"/>
<path d="M0 0 C-0.33 0.99 -0.66 1.98 -1 3 C-2.92578125 3.6953125 -2.92578125 3.6953125 -5.3125 4.125 C-6.48232422 4.34542969 -6.48232422 4.34542969 -7.67578125 4.5703125 C-8.82626953 4.78300781 -8.82626953 4.78300781 -10 5 C-11.33583795 5.3231499 -12.67013726 5.65307929 -14 6 C-11.38257345 0.76514691 -5.33862662 -0.52084162 0 0 Z " fill="#AD9AAC" transform="translate(83,52)"/>
<path d="M0 0 C0.33 0.99 0.66 1.98 1 3 C-1.06228466 3.48009262 -3.12483701 3.95903544 -5.1875 4.4375 C-6.33605469 4.70433594 -7.48460937 4.97117187 -8.66796875 5.24609375 C-11.43923875 5.87312201 -14.21091874 6.45899177 -17 7 C-14.29953688 3.49642517 -10.96513333 2.91732905 -6.8125 1.8125 C-5.54019531 1.46832031 -4.26789062 1.12414063 -2.95703125 0.76953125 C-1.49330078 0.38861328 -1.49330078 0.38861328 0 0 Z " fill="#F6BA8F" transform="translate(58,49)"/>
<path d="M0 0 C0 0.66 0 1.32 0 2 C-0.66 2 -1.32 2 -2 2 C-2.33 2.66 -2.66 3.32 -3 4 C-5.28515625 4.4140625 -5.28515625 4.4140625 -8.0625 4.625 C-8.98160156 4.69976562 -9.90070312 4.77453125 -10.84765625 4.8515625 C-11.91306641 4.92503906 -11.91306641 4.92503906 -13 5 C-12 2 -12 2 -9.875 0.8125 C-6.48581699 -0.14531259 -3.50528139 -0.13746202 0 0 Z " fill="#DFAD9C" transform="translate(72,50)"/>
<path d="M0 0 C0.66 0.33 1.32 0.66 2 1 C0.11243085 3.9661801 -1.58324571 6.6189675 -4.1875 9 C-6.51539751 11.5687145 -6.69144439 13.60588824 -7 17 C-7.66 16.67 -8.32 16.34 -9 16 C-9.125 13.125 -9.125 13.125 -9 10 C-7.697875 8.697875 -6.38579351 7.40560662 -5.0625 6.125 C-3.17467147 4.17996455 -1.57310238 2.20234334 0 0 Z " fill="#E99261" transform="translate(14,33)"/>
<path d="M0 0 C-1.47559669 4.42679007 -3.90057368 4.91432696 -8 7 C-8.66 7 -9.32 7 -10 7 C-10 6.01 -10 5.02 -10 4 C-6.35022743 1.09677182 -4.74147821 0 0 0 Z " fill="#4295C5" transform="translate(67,76)"/>
<path d="M0 0 C0.33 1.32 0.66 2.64 1 4 C-2.20336822 6.83374881 -4.78087253 7.5205537 -9 8 C-9 6 -9 6 -7.5390625 4.4921875 C-6.59160156 3.69167969 -6.59160156 3.69167969 -5.625 2.875 C-4.99851562 2.33617187 -4.37203125 1.79734375 -3.7265625 1.2421875 C-2 0 -2 0 0 0 Z " fill="#FFBA56" transform="translate(27,46)"/>
<path d="M0 0 C-3.73530598 3.28254162 -7.2896745 5.37279665 -12 7 C-14.4375 6.6875 -14.4375 6.6875 -16 6 C-13.69 5.34 -11.38 4.68 -9 4 C-9 3.34 -9 2.68 -9 2 C-5.5647952 -0.29013653 -4.014669 -0.17842973 0 0 Z " fill="#D2B4AC" transform="translate(67,54)"/>
<path d="M0 0 C-2.58411731 1.72274487 -4.54902656 2.68895522 -7.4375 3.6875 C-8.19933594 3.95949219 -8.96117187 4.23148438 -9.74609375 4.51171875 C-12.21829721 5.04729142 -13.62983284 4.80445309 -16 4 C-13.21769572 2.14513048 -11.15636393 1.27537888 -8 0.3125 C-6.700625 -0.09548828 -6.700625 -0.09548828 -5.375 -0.51171875 C-3 -1 -3 -1 0 0 Z " fill="#F1C197" transform="translate(54,54)"/>
<path d="M0 0 C3.62613199 0.56959153 5.25517741 1.92374534 7.75 4.5625 C8.36359375 5.20316406 8.9771875 5.84382813 9.609375 6.50390625 C10.06828125 6.99761719 10.5271875 7.49132813 11 8 C9.68 8.33 8.36 8.66 7 9 C4 5.25 4 5.25 4 3 C2.68 2.67 1.36 2.34 0 2 C0 1.34 0 0.68 0 0 Z " fill="#F8A05F" transform="translate(73,28)"/>
<path d="M0 0 C3 1 3 1 3.9609375 2.828125 C4.30382812 3.54484375 4.64671875 4.2615625 5 5 C6.70995544 6.9499629 6.70995544 6.9499629 8.625 8.75 C9.57246094 9.67039062 9.57246094 9.67039062 10.5390625 10.609375 C11.02117187 11.06828125 11.50328125 11.5271875 12 12 C11.34 12.66 10.68 13.32 10 14 C8.51207039 12.42489875 7.0349394 10.83959136 5.5625 9.25 C4.73878906 8.36828125 3.91507812 7.4865625 3.06640625 6.578125 C1.16931982 4.21124968 0.37897068 2.9490809 0 0 Z " fill="#E59365" transform="translate(81,30)"/>
<path d="M0 0 C2.64 0 5.28 0 8 0 C8.33 1.32 8.66 2.64 9 4 C8.4225 3.814375 7.845 3.62875 7.25 3.4375 C4.79307475 2.95976454 3.35602466 3.24270636 1 4 C0.67 2.68 0.34 1.36 0 0 Z " fill="#FE8141" transform="translate(71,34)"/>
<path d="M0 0 C0.66 0.33 1.32 0.66 2 1 C-3.75 5 -3.75 5 -6 5 C-6 5.99 -6 6.98 -6 8 C-7.65 7.67 -9.3 7.34 -11 7 C-7.54143152 4.05004453 -4.19978515 1.77324262 0 0 Z " fill="#46B2CA" transform="translate(45,83)"/>
<path d="M0 0 C0.66 0.66 1.32 1.32 2 2 C1.67 2.99 1.34 3.98 1 5 C-2.40562852 5.77842938 -5.50765756 6.09978121 -9 6 C-6.63672401 3.26357517 -4.36305523 2.23902035 -1 1 C-0.67 0.67 -0.34 0.34 0 0 Z " fill="#828B93" transform="translate(76,87)"/>
<path d="M0 0 C0.99 0.33 1.98 0.66 3 1 C1.8803014 2.00593243 0.7540588 3.0045849 -0.375 4 C-1.00148438 4.556875 -1.62796875 5.11375 -2.2734375 5.6875 C-4 7 -4 7 -6 7 C-6 6.01 -6 5.02 -6 4 C-4.02 3.34 -2.04 2.68 0 2 C0 1.34 0 0.68 0 0 Z " fill="#4888BF" transform="translate(73,70)"/>
<path d="M0 0 C0 0.66 0 1.32 0 2 C-3.85756507 4.15305957 -6.55129785 5.39253254 -11 5 C-8.86408028 0.72816055 -4.40904993 0 0 0 Z " fill="#6FB4C8" transform="translate(59,73)"/>
<path d="M0 0 C0.99 0.33 1.98 0.66 3 1 C1.63016497 4.16115776 1.0109362 4.9927092 -2 7 C-2.66 5.68 -3.32 4.36 -4 3 C-3.01 2.67 -2.02 2.34 -1 2 C-0.67 1.34 -0.34 0.68 0 0 Z " fill="#F88450" transform="translate(43,18)"/>
<path d="M0 0 C0 0.33 0 0.66 0 1 C-3.63 1 -7.26 1 -11 1 C-10 -1 -10 -1 -7.75 -1.75 C-4.57861448 -2.03830777 -2.83315218 -1.37610249 0 0 Z " fill="#488EB6" transform="translate(69,93)"/>
<path d="M0 0 C0 3 0 3 -1.25 4.625 C-3.17415516 6.1368362 -4.60989418 6.58791279 -7 7 C-2.25 1.125 -2.25 1.125 0 0 Z " fill="#5891C3" transform="translate(74,67)"/>
<path d="M0 0 C1.4540625 0.0309375 1.4540625 0.0309375 2.9375 0.0625 C2.6075 1.0525 2.2775 2.0425 1.9375 3.0625 C0.2875 3.3925 -1.3625 3.7225 -3.0625 4.0625 C-3.3925 3.0725 -3.7225 2.0825 -4.0625 1.0625 C-3.0625 0.0625 -3.0625 0.0625 0 0 Z " fill="#EAB599" transform="translate(57.0625,51.9375)"/>
<path d="M0 0 C1.32 0.33 2.64 0.66 4 1 C3.67 1.99 3.34 2.98 3 4 C1.35 4 -0.3 4 -2 4 C-1.34 2.68 -0.68 1.36 0 0 Z " fill="#F94938" transform="translate(88,47)"/>
<path d="M0 0 C0.33 0.99 0.66 1.98 1 3 C-1.31 4.32 -3.62 5.64 -6 7 C-6.33 6.34 -6.66 5.68 -7 5 C-4.69 3.35 -2.38 1.7 0 0 Z " fill="#6F8DBC" transform="translate(81,59)"/>
<path d="M0 0 C-1 3 -1 3 -3.4375 4.75 C-4.7059375 5.36875 -4.7059375 5.36875 -6 6 C-6.66 5.67 -7.32 5.34 -8 5 C-2.25 0 -2.25 0 0 0 Z " fill="#8E92B6" transform="translate(82,55)"/>
<path d="M0 0 C1.4540625 0.0309375 1.4540625 0.0309375 2.9375 0.0625 C2.6075 1.0525 2.2775 2.0425 1.9375 3.0625 C-0.125 3.75 -0.125 3.75 -2.0625 4.0625 C-2.7225 3.0725 -3.3825 2.0825 -4.0625 1.0625 C-3.0625 0.0625 -3.0625 0.0625 0 0 Z " fill="#E0998A" transform="translate(73.0625,45.9375)"/>
<path d="M0 0 C-2.93720508 1.52299523 -5.9168649 2.80100302 -9 4 C-8 1 -8 1 -6.1875 -0.25 C-3.66056586 -1.11637742 -2.47778006 -0.88492145 0 0 Z " fill="#F2A786" transform="translate(69,46)"/>
<path d="M0 0 C2.88575819 0.39803561 3.82189513 0.79009069 5.75 3.0625 C6.1625 3.701875 6.575 4.34125 7 5 C5.68 5 4.36 5 3 5 C3 4.34 3 3.68 3 3 C2.01 2.67 1.02 2.34 0 2 C0 1.34 0 0.68 0 0 Z " fill="#F9BE79" transform="translate(55,11)"/>
<path d="M0 0 C0.99 0.33 1.98 0.66 3 1 C0.6875 3.0625 0.6875 3.0625 -2 5 C-2.99 4.67 -3.98 4.34 -5 4 C-4.01 3.67 -3.02 3.34 -2 3 C-2 2.34 -2 1.68 -2 1 C-1.34 0.67 -0.68 0.34 0 0 Z " fill="#659AC6" transform="translate(68,69)"/>
<path d="M0 0 C0.99 0.66 1.98 1.32 3 2 C0.525 3.485 0.525 3.485 -2 5 C-2.99 4.34 -3.98 3.68 -5 3 C-3.35 2.01 -1.7 1.02 0 0 Z " fill="#C4A7AA" transform="translate(68,53)"/>
<path d="M0 0 C1.32 0 2.64 0 4 0 C3.67 0.99 3.34 1.98 3 3 C1.02 3.33 -0.96 3.66 -3 4 C-2.67 3.34 -2.34 2.68 -2 2 C-1.34 2 -0.68 2 0 2 C0 1.34 0 0.68 0 0 Z " fill="#A190AC" transform="translate(79,52)"/>
<path d="M0 0 C2.625 -0.1875 2.625 -0.1875 5 0 C5 0.66 5 1.32 5 2 C4.34 2 3.68 2 3 2 C2.67 2.66 2.34 3.32 2 4 C0.68 3.67 -0.64 3.34 -2 3 C-1.34 2.01 -0.68 1.02 0 0 Z " fill="#D5A39B" transform="translate(67,50)"/>
<path d="M0 0 C1.32 1.32 2.64 2.64 4 4 C1.36 4.33 -1.28 4.66 -4 5 C-4 4.34 -4 3.68 -4 3 C-3.01 2.67 -2.02 2.34 -1 2 C-0.67 1.34 -0.34 0.68 0 0 Z " fill="#CA9594" transform="translate(76,46)"/>
<path d="M0 0 C1.125 1.5625 1.125 1.5625 2 4 C1.125 7.75 1.125 7.75 0 11 C-0.66 10.67 -1.32 10.34 -2 10 C-1.67 9.01 -1.34 8.02 -1 7 C-1 5.96875 -1 4.9375 -1 3.875 C-1 1 -1 1 0 0 Z " fill="#F3935C" transform="translate(94,42)"/>
<path d="M0 0 C2.3125 -0.25 2.3125 -0.25 5 0 C6.8125 2 6.8125 2 8 4 C4.31245243 3.50168276 2.39509338 2.89932357 0 0 Z " fill="#FCBA6D" transform="translate(58,16)"/>
<path d="M0 0 C0.33 0 0.66 0 1 0 C1.33 4.62 1.66 9.24 2 14 C1.34 14 0.68 14 0 14 C-0.19456705 12.04235617 -0.38044247 10.08384679 -0.5625 8.125 C-0.66691406 7.03445312 -0.77132812 5.94390625 -0.87890625 4.8203125 C-1 2 -1 2 0 0 Z " fill="#F3905A" transform="translate(79,11)"/>
<path d="M0 0 C2.625 0.1875 2.625 0.1875 5 1 C5.33 1.66 5.66 2.32 6 3 C3.03 3 0.06 3 -3 3 C-2.01 2.01 -1.02 1.02 0 0 Z " fill="#F3925B" transform="translate(71,9)"/>
<path d="M0 0 C0.66 0.33 1.32 0.66 2 1 C1.67 1.66 1.34 2.32 1 3 C0.34 3 -0.32 3 -1 3 C-0.67 2.01 -0.34 1.02 0 0 Z " fill="#648EA6" transform="translate(82,82)"/>
<path d="M0 0 C0 3 0 3 0 3 Z " fill="#F3965E" transform="translate(79,26)"/>
<path d="M0 0 C2 1 2 1 2 1 Z " fill="#F3965E" transform="translate(77,10)"/>
<path d="" fill="#488EB6" transform="translate(0,0)"/>
<path d="" fill="#488EB6" transform="translate(0,0)"/>
<path d="" fill="#488EB6" transform="translate(0,0)"/>
<path d="" fill="#488EB6" transform="translate(0,0)"/>
<path d="" fill="#488EB6" transform="translate(0,0)"/>
<path d="" fill="#F38E59" transform="translate(0,0)"/>
<path d="" fill="#488EB6" transform="translate(0,0)"/>
<path d="" fill="#488EB6" transform="translate(0,0)"/>
<path d="" fill="#F38E59" transform="translate(0,0)"/>
<path d="" fill="#488EB6" transform="translate(0,0)"/>
<path d="" fill="#488EB6" transform="translate(0,0)"/>
<path d="" fill="#F38E59" transform="translate(0,0)"/>
<path d="" fill="#F3965E" transform="translate(0,0)"/>
<path d="" fill="#F3965E" transform="translate(0,0)"/>
<path d="" fill="#F38E59" transform="translate(0,0)"/>
<path d="" fill="#F3965E" transform="translate(0,0)"/>
<path d="" fill="#F3965E" transform="translate(0,0)"/>
<path d="" fill="#F3965E" transform="translate(0,0)"/>
<path d="" fill="#F3965E" transform="translate(0,0)"/>
<path d="" fill="#F3965E" transform="translate(0,0)"/>
<path d="" fill="#F3965E" transform="translate(0,0)"/>
<path d="" fill="#F3965E" transform="translate(0,0)"/>
<path d="" fill="#F3965E" transform="translate(0,0)"/>
<path d="" fill="#F3965E" transform="translate(0,0)"/>
<path d="" fill="#F3965E" transform="translate(0,0)"/>
<path d="" fill="#F3965E" transform="translate(0,0)"/>
<path d="" fill="#F38E59" transform="translate(0,0)"/>
<path d="" fill="#F3965E" transform="translate(0,0)"/>
<path d="" fill="#F38E59" transform="translate(0,0)"/>
<path d="" fill="#F3965E" transform="translate(0,0)"/>
<path d="" fill="#F38E59" transform="translate(0,0)"/>
<path d="" fill="#F3965E" transform="translate(0,0)"/>
<path d="" fill="#F38E59" transform="translate(0,0)"/>
<path d="" fill="#F3965E" transform="translate(0,0)"/>
<path d="" fill="#F38E59" transform="translate(0,0)"/>
<path d="" fill="#F3965E" transform="translate(0,0)"/>
<path d="" fill="#F38E59" transform="translate(0,0)"/>
<path d="" fill="#F38E59" transform="translate(0,0)"/>
<path d="" fill="#F3965E" transform="translate(0,0)"/>
<path d="" fill="#F38E59" transform="translate(0,0)"/>
<path d="" fill="#F38E59" transform="translate(0,0)"/>
<path d="" fill="#F3965E" transform="translate(0,0)"/>
<path d="" fill="#F3965E" transform="translate(0,0)"/>
<path d="" fill="#F38E59" transform="translate(0,0)"/>
<path d="" fill="#F38E59" transform="translate(0,0)"/>
<path d="" fill="#F3965E" transform="translate(0,0)"/>
<path d="" fill="#F38E59" transform="translate(0,0)"/>
<path d="" fill="#F38E59" transform="translate(0,0)"/>
<path d="" fill="#F3965E" transform="translate(0,0)"/>
<path d="" fill="#F38E59" transform="translate(0,0)"/>
<path d="" fill="#F3965E" transform="translate(0,0)"/>
<path d="" fill="#F38E59" transform="translate(0,0)"/>
<path d="" fill="#F3965E" transform="translate(0,0)"/>
<path d="" fill="#F38E59" transform="translate(0,0)"/>
<path d="" fill="#F3965E" transform="translate(0,0)"/>
<path d="" fill="#F38E59" transform="translate(0,0)"/>
<path d="" fill="#F3965E" transform="translate(0,0)"/>
<path d="" fill="#F38E59" transform="translate(0,0)"/>
<path d="" fill="#F3965E" transform="translate(0,0)"/>
<path d="" fill="#F38E59" transform="translate(0,0)"/>
<path d="" fill="#F3965E" transform="translate(0,0)"/>
<path d="" fill="#F38E59" transform="translate(0,0)"/>
<path d="" fill="#F3965E" transform="translate(0,0)"/>
<path d="" fill="#F38E59" transform="translate(0,0)"/>
<path d="" fill="#F3965E" transform="translate(0,0)"/>
<path d="" fill="#F38E59" transform="translate(0,0)"/>
<path d="" fill="#F3965E" transform="translate(0,0)"/>
<path d="" fill="#F38E59" transform="translate(0,0)"/>
<path d="" fill="#F3965E" transform="translate(0,0)"/>
<path d="" fill="#F38E59" transform="translate(0,0)"/>
<path d="" fill="#F3965E" transform="translate(0,0)"/>
<path d="" fill="#F38E59" transform="translate(0,0)"/>
<path d="" fill="#F3965E" transform="translate(0,0)"/>
<path d="" fill="#F38E59" transform="translate(0,0)"/>
<path d="" fill="#F3965E" transform="translate(0,0)"/>
<path d="" fill="#F3965E" transform="translate(0,0)"/>
<path d="" fill="#F38E59" transform="translate(0,0)"/>
<path d="" fill="#F3965E" transform="translate(0,0)"/>
<path d="" fill="#F3965E" transform="translate(0,0)"/>
<path d="" fill="#F3965E" transform="translate(0,0)"/>
<path d="" fill="#F3965E" transform="translate(0,0)"/>
<path d="" fill="#F38E59" transform="translate(0,0)"/>
<path d="" fill="#F3965E" transform="translate(0,0)"/>
<path d="" fill="#F3965E" transform="translate(0,0)"/>
<path d="" fill="#F38E59" transform="translate(0,0)"/>
<path d="" fill="#F3965E" transform="translate(0,0)"/>
<path d="" fill="#F3965E" transform="translate(0,0)"/>
<path d="" fill="#F3965E" transform="translate(0,0)"/>
<path d="" fill="#F38E59" transform="translate(0,0)"/>
<path d="" fill="#F3965E" transform="translate(0,0)"/>
<path d="" fill="#F3965E" transform="translate(0,0)"/>
<path d="" fill="#F38E59" transform="translate(0,0)"/>
<path d="" fill="#F3965E" transform="translate(0,0)"/>
<path d="" fill="#F3965E" transform="translate(0,0)"/>
<path d="" fill="#F38E59" transform="translate(0,0)"/>
<path d="" fill="#F3965E" transform="translate(0,0)"/>
<path d="" fill="#F3965E" transform="translate(0,0)"/>
<path d="" fill="#F3965E" transform="translate(0,0)"/>
<path d="" fill="#F3965E" transform="translate(0,0)"/>
<path d="" fill="#F3965E" transform="translate(0,0)"/>
<path d="" fill="#F3965E" transform="translate(0,0)"/>
</svg>
